<svg width="465" height="41" viewBox="0 0 465 41" fill="none" xmlns="http://www.w3.org/2000/svg">
<path d="M430.674 34.2851V39.1111H425.828V34.2851H430.674ZM432.33 32.6296H424.172V40.787H432.33V32.6296ZM438.832 26.1277V30.9537H433.985V26.1277H438.832ZM440.487 24.4722H432.33V32.6296H440.487V24.4722ZM463.324 34.2851V39.1111H458.498V34.2851H463.324ZM465 32.6296H456.843V40.787H465V32.6296ZM455.167 26.1277V30.9537H450.341V26.1277H455.167ZM456.843 24.4722H448.665V32.6296H456.822L456.843 24.4722ZM448.665 16.3148H440.508V24.4722H448.665V16.3148ZM430.674 1.65554V6.48147H425.828V1.65554H430.674ZM432.33 0H424.172V8.1574H432.33V0ZM438.832 9.81294V14.6389H434.006V9.81294H438.832ZM440.487 8.1574H432.33V16.3148H440.487V8.1574ZM463.324 1.65554V6.48147H458.498V1.65554H463.324ZM465 0H456.843V8.1574H465V0ZM455.167 9.81294V14.6389H450.341V9.81294H455.167ZM456.843 8.1574H448.665V16.3148H456.822L456.843 8.1574Z" fill="url(#paint0_linear_1124_540)"/>
<path d="M8.1574 32.6296H32.6296V8.15742H0V1.72149e-05H40.787V40.787H0V16.3148H8.1574V32.6296Z" fill="white"/>
<path d="M57.0999 0V40.787H48.9425V0H57.0999Z" fill="white"/>
<path d="M106.044 8.1574H73.4142V16.3148H106.044V40.787H65.2568V32.6296H97.8864V24.4722H65.2568V0H106.044V8.1574Z" fill="white"/>
<path d="M130.516 24.4722H122.359V40.787H114.201V0H154.988V24.4722H140.586L154.988 40.787H144.919L130.516 24.4722ZM122.359 8.1574V16.3148H146.831V8.1574H122.359Z" fill="white"/>
<path d="M171.301 0V32.6296H195.773V0H203.931V40.787H163.144V0H171.301Z" fill="white"/>
<path d="M220.245 40.787H212.088V0H252.875V24.4722H220.245V40.787ZM244.718 16.3148V8.1574H220.245V16.3148H244.718Z" fill="white"/>
<path d="M261.03 0H301.817V8.1574H285.503V40.787H277.345V8.1574H261.03V0Z" fill="white"/>
<path d="M318.131 0V40.787H309.973V0H318.131Z" fill="white"/>
<path d="M367.075 0V40.787H326.288V0H367.075ZM334.445 8.1574V32.6296H358.917V8.1574H334.445Z" fill="white"/>
<path d="M375.232 40.787V0H383.389L407.861 28.9332V0H416.019V40.787H407.861L383.389 12.7468V40.787H375.232Z" fill="white"/>
<defs>
<linearGradient id="paint0_linear_1124_540" x1="424.08" y1="20.3935" x2="465.112" y2="20.3935" gradientUnits="userSpaceOnUse">
<stop stop-color="#06A7FB"/>
<stop offset="1" stop-color="#00EBED"/>
</linearGradient>
</defs>
</svg>
