<?xml version="1.0" encoding="UTF-8" standalone="no"?>
<!-- Created with Inkscape (http://www.inkscape.org/) -->

<svg
   version="1.1"
   id="svg2"
   xml:space="preserve"
   width="1333.3333"
   height="1333.3333"
   viewBox="0 0 1333.3333 1333.3333"
   sodipodi:docname="Xoltar Logo 2021 (1).ai"
   xmlns:inkscape="http://www.inkscape.org/namespaces/inkscape"
   xmlns:sodipodi="http://sodipodi.sourceforge.net/DTD/sodipodi-0.dtd"
   xmlns="http://www.w3.org/2000/svg"
   xmlns:svg="http://www.w3.org/2000/svg"><defs
     id="defs6"><clipPath
       clipPathUnits="userSpaceOnUse"
       id="clipPath24"><path
         d="M 0,1000 H 1000 V 0 H 0 Z"
         id="path22" /></clipPath></defs><sodipodi:namedview
     id="namedview4"
     pagecolor="#ffffff"
     bordercolor="#666666"
     borderopacity="1.0"
     inkscape:pageshadow="2"
     inkscape:pageopacity="0.0"
     inkscape:pagecheckerboard="0" /><g
     id="g8"
     inkscape:groupmode="layer"
     inkscape:label="Xoltar Logo 2021 (1)"
     transform="matrix(1.3333333,0,0,-1.3333333,0,1333.3333)"><g
       id="g10"
       transform="translate(265.269,500.7251)"><path
         d="m 0,0 8.118,11.849 18.445,27.85 H 47.451 L 19.723,0.122 49.283,-41.776 H 28.517 L 8.118,-11.971 Z"
         style="fill:#5b3995;fill-opacity:1;fill-rule:nonzero;stroke:none"
         id="path12" /></g><g
       id="g14"
       transform="translate(254.8228,488.7539)"><path
         d="m 0,0 -20.399,-29.805 h -20.766 l 29.561,41.898 -27.729,39.577 h 20.888 L 0,23.82 8.118,11.971 Z"
         style="fill:#eb2f87;fill-opacity:1;fill-rule:nonzero;stroke:none"
         id="path16" /></g><g
       id="g18"><g
         id="g20"
         clip-path="url(#clipPath24)"><g
           id="g26"
           transform="translate(403.2686,499.687)"><path
             d="m 0,0 c 0,15.269 -9.772,26.751 -24.796,26.751 -15.025,0 -24.675,-11.482 -24.675,-26.751 0,-15.146 9.65,-26.75 24.675,-26.75 C -9.772,-26.75 0,-15.146 0,0 m -67.305,0 c 0,24.553 17.956,42.142 42.509,42.142 24.674,0 42.63,-17.589 42.63,-42.142 0,-24.552 -17.956,-42.142 -42.63,-42.142 -24.553,0 -42.509,17.59 -42.509,42.142"
             style="fill:#5b3995;fill-opacity:1;fill-rule:nonzero;stroke:none"
             id="path28" /></g><g
           id="g30"
           transform="translate(455.6226,458.9492)"><path
             d="M 0,0 V 81.475 H 17.345 V 15.27 H 51.792 V 0 Z"
             style="fill:#5b3995;fill-opacity:1;fill-rule:nonzero;stroke:none"
             id="path32" /></g><g
           id="g34"
           transform="translate(548.2021,458.9492)"><path
             d="M 0,0 V 66.206 H -23.819 V 81.475 H 41.165 V 66.206 H 17.468 L 17.468,0 Z"
             style="fill:#5b3995;fill-opacity:1;fill-rule:nonzero;stroke:none"
             id="path36" /></g><g
           id="g38"
           transform="translate(646.96,523.0786)"><path
             d="m 0,0 -12.703,-35.057 h 25.407 z m 22.477,-64.129 -5.009,13.802 h -34.935 l -5.131,-13.802 h -19.788 l 31.515,81.475 h 21.743 l 31.393,-81.475 z"
             style="fill:#5b3995;fill-opacity:1;fill-rule:nonzero;stroke:none"
             id="path40" /></g><g
           id="g42"
           transform="translate(767.4141,514.1616)"><path
             d="m 0,0 c 0,6.841 -5.252,10.994 -12.215,10.994 h -18.2 v -21.988 h 18.2 C -5.252,-10.994 0,-6.84 0,0 m -1.71,-55.212 -16.001,28.95 h -12.704 v -28.95 H -47.761 V 26.263 H -9.649 C 7.329,26.263 17.713,15.147 17.713,0 c 0,-14.414 -9.04,-22.109 -17.834,-24.186 l 18.322,-31.026 z"
             style="fill:#5b3995;fill-opacity:1;fill-rule:nonzero;stroke:none"
             id="path44" /></g></g></g></g></svg>
